<?xml version="1.0" standalone="no"?>
<!DOCTYPE svg PUBLIC "-//W3C//DTD SVG 20010904//EN"
 "http://www.w3.org/TR/2001/REC-SVG-20010904/DTD/svg10.dtd">
<svg version="1.0" xmlns="http://www.w3.org/2000/svg"
 width="734.000000pt" height="734.000000pt" viewBox="0 0 734.000000 734.000000"
 preserveAspectRatio="xMidYMid meet">
<metadata>
Created by potrace 1.11, written by Peter Selinger 2001-2013
</metadata>
<g transform="translate(0.000000,734.000000) scale(0.100000,-0.100000)"
fill="#000000" stroke="none">
<path d="M1175 4555 c-262 -58 -410 -208 -422 -430 -6 -107 18 -173 90 -245
78 -78 193 -130 411 -185 98 -25 194 -55 213 -66 124 -77 114 -231 -20 -300
-76 -39 -234 -42 -304 -6 -67 36 -113 113 -113 192 l0 45 -161 0 -162 0 6 -72
c12 -139 60 -238 149 -308 167 -133 546 -146 782 -28 156 78 236 210 238 393
2 213 -125 311 -540 415 -165 41 -206 61 -239 117 -21 37 -25 53 -21 99 10
114 112 183 253 171 124 -9 181 -61 209 -189 l6 -28 144 0 c78 0 145 2 148 5
2 3 1 34 -3 70 -21 174 -148 305 -339 351 -70 17 -247 16 -325 -1z"/>
<path d="M2565 4555 c-138 -30 -236 -85 -328 -185 -101 -108 -160 -260 -177
-451 -31 -365 102 -659 353 -778 109 -52 177 -65 332 -65 165 -1 216 10 340
69 242 116 368 375 352 724 -6 150 -28 244 -84 360 -82 172 -231 286 -425 325
-93 19 -279 20 -363 1z m340 -239 c147 -73 215 -256 202 -550 -13 -291 -103
-434 -294 -465 -150 -24 -282 30 -348 143 -63 108 -91 290 -74 482 25 293 149
431 377 420 63 -3 95 -10 137 -30z"/>
<path d="M5110 3820 l0 -720 155 0 155 0 0 720 0 720 -155 0 -155 0 0 -720z"/>
<path d="M5690 3820 l0 -720 465 0 465 0 0 120 0 120 -310 0 -310 0 0 600 0
600 -155 0 -155 0 0 -720z"/>
<path d="M3780 3710 l0 -110 500 0 500 0 0 110 0 110 -500 0 -500 0 0 -110z"/>
</g>
</svg>
